PathFileType	4	(X/Y/Z)	CPRIT_Patient3_L_KneeIso_Processed.TRC
DataRate	CameraRate	NumFrames	NumMarkers	Units	OrigDataRate	OrigDataStartFrame	OrigNumFrames
150.195058517555	150.195058517555	4	36	m	150.195058517555	675	       771
Frame#	Time	R.Heel			R.Midfoot.Superior			R.Midfoot.Lateral			R.Toe			L.Heel			L.Midfoot.Superior			L.Midfoot.Lateral			L.Toe			R.Shank.Superior			R.Shank.Inferior			R.Shank.Lateral			R.Shank.Posterior			L.Shank.Superior			L.Shank.Inferior			L.Shank.Posterior			L.Shank.Lateral			R.Patella			L.Patella			R.Thigh.Superior			R.Thigh.Lateral			R.Thigh.Inferior			L.Thigh.Superior			L.Thigh.Inferior			L.Thigh.Lateral			L.Asis			R.Asis			R.Shoulder			L.Shoulder			C7			J.Notch			Sternum			Thoracic			L.Elbow			L.Wrist			R.Elbow			R.Wrist			
		X1	Y1	Z1	X2	Y2	Z2	X3	Y3	Z3	X4	Y4	Z4	X5	Y5	Z5	X6	Y6	Z6	X7	Y7	Z7	X8	Y8	Z8	X9	Y9	Z9	X10	Y10	Z10	X11	Y11	Z11	X12	Y12	Z12	X13	Y13	Z13	X14	Y14	Z14	X15	Y15	Z15	X16	Y16	Z16	X17	Y17	Z17	X18	Y18	Z18	X19	Y19	Z19	X20	Y20	Z20	X21	Y21	Z21	X22	Y22	Z22	X23	Y23	Z23	X24	Y24	Z24	X25	Y25	Z25	X26	Y26	Z26	X27	Y27	Z27	X28	Y28	Z28	X29	Y29	Z29	X30	Y30	Z30	X31	Y31	Z31	X32	Y32	Z32	X33	Y33	Z33	X34	Y34	Z34	X35	Y35	Z35	X36	Y36	Z36	

675	4.487497835498	0.480661025691	0.049341621340	0.082908478251	0.646704633479	0.097745260719	0.116205747186	0.549761029790	0.038017819198	0.147905893634	0.762034436179	0.054684889193	0.140122955242	0.463371299177	0.131972986335	-0.069735988850	0.639416468281	0.134097812861	-0.105074211826	0.529894023368	0.098854950141	-0.134025428170	0.738059087606	0.061306339225	-0.121441900365	0.606741193706	0.357649871711	0.148678016081	0.597948209525	0.238002877807	0.138004541320	0.528179148063	0.289417915168	0.194973178497	0.468444658829	0.355928957098	0.140153277339	0.714352176769	0.391093600348	-0.098729695500	0.650265097731	0.277267192067	-0.096044365382	0.570894882659	0.420161334200	-0.100050742692	0.617423911968	0.340872103796	-0.150719879101	0.635100329330	0.466471622144	0.135615009602	0.780758498155	0.504679606402	-0.087261759169	0.687026317128	0.776628349239	0.166553522018	0.605599041456	0.706526814708	0.222034569943	0.674650238657	0.618272245960	0.134819050486	0.698741242232	0.822766873804	-0.097213806445	0.753253205313	0.671161729821	-0.088201744580	0.635628554393	0.727251321886	-0.149391323746	0.645757362691	0.956807623344	-0.074582687562	0.676916232880	0.937403036519	0.158590800291	0.562132208936	1.444011385526	0.230687062628	0.588069796621	1.435088059092	-0.098847737277	0.532032565204	1.479252882261	0.083012318510	0.653555446408	1.381462640917	0.070263920521	0.710328574266	1.201400564195	0.056651014811	0.451820333422	1.322259936409	0.073479679038	0.541647650777	1.171787584598	-0.275380067003	0.614096931333	0.988284157277	-0.432151886489	0.548515164637	1.137785455982	0.387248405235	0.761229768029	0.990639550388	0.414278652052	
676	4.494155844156	0.480660424847	0.049341013222	0.082908284527	0.646718566704	0.097752324208	0.116205345954	0.549760384790	0.038017258862	0.147905681118	0.762037238388	0.054676389948	0.140112796919	0.467914921007	0.128333032083	-0.070706761539	0.644049315398	0.132782037481	-0.105405532495	0.535164390560	0.096097945884	-0.134755612329	0.743744474623	0.061335172229	-0.121344382670	0.606732743581	0.357651533459	0.148660012454	0.597946781746	0.238003398049	0.137995853318	0.528166509298	0.289414352185	0.194974545132	0.468436574794	0.355920664574	0.140147961265	0.715299025877	0.390914173599	-0.098791457825	0.652835949803	0.276185155344	-0.096383917552	0.571674097763	0.418055005197	-0.100732192338	0.619341784574	0.339381479974	-0.151133865424	0.635087736174	0.466473351620	0.135580131207	0.780296235126	0.504886889661	-0.087117659823	0.687037423540	0.776624700632	0.166471515818	0.605624060144	0.706531340595	0.221994527112	0.674651166843	0.618254813337	0.134757074205	0.698640381538	0.822684866351	-0.097353479127	0.752809919179	0.670948431753	-0.088164262850	0.635347445447	0.727185745505	-0.149467619056	0.645679385581	0.956801614685	-0.074659105157	0.676931388734	0.937399574148	0.158506680290	0.562078450775	1.443986537646	0.230680180834	0.587999909613	1.435097446705	-0.098858778804	0.531962561268	1.479240011699	0.083025575132	0.653499628759	1.381473001325	0.070251167504	0.710300536621	1.201416840931	0.056597258037	0.451779646018	1.322238370039	0.073477375806	0.541620432738	1.171783600316	-0.275380859453	0.614093031034	0.988283600242	-0.432149587655	0.548502214827	1.137752496173	0.387234607725	0.761236925784	0.990637151435	0.414271599947	
677	4.500813852814	0.480659893896	0.049340454664	0.082908151338	0.646734962440	0.097760704008	0.116205347607	0.549759742283	0.038016718322	0.147905499410	0.762039864271	0.054667540831	0.140102528035	0.472543690987	0.124725807059	-0.071646484485	0.648729112178	0.131533132990	-0.105712219536	0.540502234290	0.093397869503	-0.135461110470	0.749467313565	0.061459447764	-0.121228713173	0.606724165232	0.357653536731	0.148641971785	0.597944290410	0.238002944265	0.137987282649	0.528155370546	0.289411570235	0.194973962120	0.468427900490	0.355913517810	0.140142091672	0.716241554864	0.390756318141	-0.098837841784	0.655430011664	0.275139091751	-0.096706112718	0.572475378415	0.415951508664	-0.101394620522	0.621274167360	0.337913644028	-0.151536180048	0.635074979913	0.466474266155	0.135546283262	0.779811151969	0.505100079518	-0.086967747299	0.687048206311	0.776620881498	0.166388214015	0.605649058117	0.706536138734	0.221953123347	0.674649157062	0.618236676955	0.134690767779	0.698530991519	0.822596299715	-0.097496239874	0.752348330624	0.670729183413	-0.088124835373	0.635052961103	0.727120011506	-0.149547870157	0.645598740503	0.956793896373	-0.074738575765	0.676946946525	0.937395777151	0.158419470191	0.562031094649	1.443962706519	0.230669865726	0.587930659957	1.435106545984	-0.098871275806	0.531896850232	1.479227623660	0.083036678301	0.653447073415	1.381482317801	0.070234593359	0.710274274805	1.201432522083	0.056538610674	0.451741558863	1.322217912135	0.073474701978	0.541592522590	1.171780123599	-0.275383539975	0.614088874535	0.988283347579	-0.432148414898	0.548492777606	1.137723349876	0.387222684959	0.761244904807	0.990634938090	0.414264645599	
678	4.507471861472	0.480659442111	0.049339949089	0.082908089443	0.646753887653	0.097770435499	0.116205818210	0.549759115571	0.038016205119	0.147905359738	0.762042293723	0.054658504883	0.140092330497	0.477256993504	0.121157104986	-0.072550716220	0.653453031068	0.130355942418	-0.105992125205	0.545904221407	0.090760146236	-0.136138484906	0.755222672754	0.061683022841	-0.121095514396	0.606715314316	0.357655939764	0.148623972990	0.597940578744	0.238001519781	0.137978783751	0.528145826669	0.289409724530	0.194971132196	0.468418481362	0.355907505668	0.140135443388	0.717180383199	0.390621213280	-0.098869295747	0.658046686453	0.274131926832	-0.097009405776	0.573297829896	0.413854366427	-0.102033829331	0.623220081633	0.336471111820	-0.151925351254	0.635061949074	0.466474189450	0.135513946132	0.779304297430	0.505320386929	-0.086813541648	0.687058343733	0.776616949511	0.166303804805	0.605673558445	0.706541224141	0.221910398243	0.674643458170	0.618217945497	0.134619951048	0.698413074327	0.822501148037	-0.097641856592	0.751868987137	0.670504840927	-0.088084390426	0.634745017075	0.727054596045	-0.149632504641	0.645515827034	0.956784505288	-0.074820847966	0.676962783600	0.937391640416	0.158329365010	0.561989906915	1.443940106361	0.230655969116	0.587862159676	1.435115379740	-0.098885352165	0.531835388581	1.479215825621	0.083045301380	0.653397684106	1.381490700715	0.070214133910	0.710249744181	1.201447665214	0.056475412855	0.451706024570	1.322198641978	0.073471392590	0.541563877610	1.171777169725	-0.275388363015	0.614084490620	0.988283404344	-0.432148424190	0.548486918163	1.137698194351	0.387212388551	0.761253663182	0.990632938660	0.414257790540	
